<?xml version="1.0" standalone="no"?>
<!DOCTYPE svg PUBLIC "-//W3C//DTD SVG 20010904//EN"
 "http://www.w3.org/TR/2001/REC-SVG-20010904/DTD/svg10.dtd">
<svg version="1.0" xmlns="http://www.w3.org/2000/svg"
 width="500.000000pt" height="500.000000pt" viewBox="0 0 500.000000 500.000000"
 preserveAspectRatio="xMidYMid meet">
<metadata>
Created by potrace 1.14, written by Peter Selinger 2001-2017
</metadata>
<g transform="translate(0.000000,500.000000) scale(0.100000,-0.100000)"
fill="#000000" stroke="none">
<path d="M2320 4990 c-888 -69 -1666 -593 -2055 -1385 -125 -255 -193 -473
-236 -756 -30 -202 -30 -496 0 -698 43 -283 111 -501 236 -756 244 -496 634
-886 1130 -1130 255 -125 473 -193 756 -236 202 -30 496 -30 698 0 283 43 501
111 756 236 496 244 886 634 1130 1130 125 255 193 473 236 756 30 202 30 496
0 698 -43 283 -111 501 -236 756 -198 402 -497 740 -875 987 -123 81 -363 201
-504 253 -306 113 -716 170 -1036 145z m1435 -1061 c52 -14 126 -90 143 -145
32 -106 -8 -212 -101 -271 -30 -19 -61 -27 -131 -33 -182 -18 -352 -55 -498
-110 -66 -25 -70 -32 -93 -185 -19 -127 -19 -324 1 -483 8 -70 17 -128 18
-130 2 -1 37 3 77 9 79 12 218 7 284 -12 158 -44 310 -170 385 -318 140 -280
61 -646 -192 -887 -105 -100 -212 -161 -363 -205 -68 -20 -102 -24 -225 -24
-123 0 -156 4 -220 23 -101 32 -225 93 -284 142 -26 22 -52 40 -57 40 -5 0
-32 -18 -61 -40 -127 -98 -282 -150 -466 -157 -103 -5 -137 -2 -218 17 -268
62 -475 230 -585 475 -58 127 -72 203 -67 357 3 118 7 141 32 203 85 207 258
351 471 391 78 14 177 15 236 1 6 -1 30 48 53 108 24 61 50 126 59 145 l16 36
-52 23 c-189 87 -343 252 -466 504 -29 60 -33 175 -7 225 24 46 74 101 109
119 157 81 440 116 631 79 141 -28 271 -106 337 -203 18 -26 33 -49 34 -51 1
-1 33 18 71 43 98 65 311 168 432 209 262 90 578 137 697 105z"/>
<path d="M3635 3845 c-11 -2 -69 -9 -130 -15 -124 -14 -333 -64 -445 -107 -56
-22 -76 -34 -78 -49 -6 -43 19 -45 118 -9 207 74 537 131 607 104 46 -17 55
-68 18 -104 -19 -20 -34 -25 -74 -25 -27 0 -102 -9 -168 -20 -662 -112 -1129
-498 -1332 -1101 l-38 -114 -34 1 c-19 1 -47 7 -63 13 -27 11 -28 14 -22 54 8
46 44 157 58 172 4 5 8 15 8 22 0 26 109 239 168 329 125 190 264 331 449 455
56 38 105 73 108 80 4 6 -2 20 -13 32 l-21 21 -102 -70 c-56 -38 -110 -75
-120 -82 -16 -12 -19 -11 -25 15 -21 88 -119 200 -217 247 -148 71 -383 73
-597 4 -89 -28 -127 -53 -150 -99 -30 -58 -26 -105 17 -190 43 -84 64 -102 89
-77 15 15 14 21 -20 88 -60 121 -44 172 67 210 137 47 339 63 463 36 157 -34
274 -142 290 -268 4 -41 3 -45 -40 -80 l-44 -37 -98 40 c-55 23 -115 47 -134
54 -19 8 -90 36 -158 64 -68 27 -130 47 -138 44 -7 -3 -14 -16 -14 -30 0 -23
33 -44 123 -76 17 -6 15 -10 -11 -32 -51 -43 -67 -115 -26 -115 9 0 33 18 53
40 55 62 84 63 228 5 65 -26 119 -48 121 -50 2 -2 -103 -147 -144 -198 -13
-16 -23 -18 -67 -12 -101 14 -217 81 -314 182 -49 50 -67 63 -83 58 -40 -13
-24 -49 58 -127 107 -102 246 -177 330 -178 29 0 28 -13 -7 -69 -15 -26 -32
-58 -36 -72 -4 -13 -11 -29 -16 -35 -14 -17 -85 -214 -93 -256 -4 -21 -11 -40
-16 -43 -4 -3 -34 2 -66 10 -75 19 -194 19 -269 0 -193 -51 -355 -224 -386
-415 -22 -130 8 -304 72 -433 64 -127 195 -255 328 -322 115 -57 205 -78 341
-78 106 0 137 4 206 26 127 39 221 94 315 184 l36 35 54 -52 c152 -145 398
-229 591 -200 193 28 321 91 453 224 107 107 160 201 195 339 45 182 18 346
-79 483 -90 127 -205 192 -386 219 -47 7 -158 -9 -218 -31 -23 -8 -49 -18 -58
-20 -12 -4 -19 8 -31 53 -41 145 -51 235 -52 443 0 215 9 294 47 410 19 55 27
68 57 82 28 14 207 74 281 94 44 12 259 44 297 44 83 0 141 40 163 112 10 31
9 42 -11 82 -29 61 -94 92 -165 81z m-700 -512 c-15 -59 -35 -213 -41 -313 -8
-128 17 -382 51 -518 22 -89 22 -93 5 -102 -10 -6 -41 -10 -68 -10 -47 0 -51
2 -61 31 -6 18 -23 102 -38 188 -31 182 -37 435 -15 581 l13 86 67 42 c79 50
97 53 87 15z m-240 -396 c1 -257 1 -265 33 -411 18 -82 32 -150 32 -151 0 -2
-15 -7 -32 -10 -47 -10 -126 -52 -175 -91 l-42 -34 -80 54 c-74 51 -184 96
-232 96 -10 0 -19 1 -19 3 0 2 15 48 34 103 79 235 199 435 360 601 55 57 104
103 110 103 8 0 11 -84 11 -263z m-844 -533 c30 -9 72 -25 94 -35 79 -37 129
-49 196 -49 163 0 349 -130 404 -283 27 -76 66 -100 93 -57 11 17 8 31 -18 95
-17 40 -38 79 -46 86 -19 16 -2 35 75 83 64 39 115 53 239 66 63 7 103 18 170
49 204 94 398 66 543 -78 92 -92 129 -185 129 -326 0 -292 -197 -541 -495
-626 -209 -59 -453 -1 -615 148 l-63 59 38 72 c31 61 36 77 27 96 -17 37 -58
23 -84 -28 -78 -154 -195 -260 -363 -327 -62 -24 -95 -31 -188 -36 -101 -5
-121 -3 -212 21 -285 78 -467 288 -505 582 -27 214 115 432 320 490 65 18 196
17 261 -2z"/>
<path d="M2533 2905 c-68 -93 -130 -201 -175 -305 -59 -135 -60 -130 19 -164
38 -16 82 -40 99 -52 31 -23 33 -23 55 -5 13 10 45 27 71 39 l46 20 -8 39
c-21 92 -44 267 -49 378 l-6 119 -52 -69z"/>
<path d="M3253 2289 c-30 -31 -2 -79 46 -79 50 0 115 -30 158 -72 56 -55 77
-118 71 -209 -6 -78 5 -103 42 -97 39 5 51 42 47 138 -3 77 -7 93 -40 152 -40
72 -86 116 -157 150 -53 26 -149 36 -167 17z"/>
<path d="M2242 2148 c-21 -21 -13 -40 41 -92 69 -67 87 -106 87 -193 0 -62 -4
-76 -36 -129 -19 -32 -47 -72 -62 -87 -21 -22 -24 -31 -16 -45 6 -9 23 -18 37
-20 22 -3 34 7 77 65 63 85 84 152 78 245 -7 93 -46 168 -116 225 -56 45 -71
50 -90 31z"/>
<path d="M2600 1872 c-27 -22 -21 -57 11 -67 39 -13 67 43 37 73 -16 16 -22
15 -48 -6z"/>
<path d="M2862 3638 c-26 -26 1 -65 38 -53 16 5 20 14 18 33 -3 30 -35 41 -56
20z"/>
</g>
</svg>
